<?xml version="1.0" standalone="no"?>
<!DOCTYPE svg PUBLIC "-//W3C//DTD SVG 20010904//EN"
 "http://www.w3.org/TR/2001/REC-SVG-20010904/DTD/svg10.dtd">
<svg version="1.0" xmlns="http://www.w3.org/2000/svg"
 width="200.000000pt" height="200.000000pt" viewBox="0 0 200.000000 200.000000"
 preserveAspectRatio="xMidYMid meet">
<metadata>
Created by potrace 1.14, written by Peter Selinger 2001-2017
</metadata>
<g transform="translate(0.000000,200.000000) scale(0.100000,-0.100000)"
fill="#000000" stroke="none">
<path d="M995 1749 c-99 -14 -184 -48 -231 -91 -29 -27 -41 -45 -37 -55 6 -14
8 -14 14 3 5 12 8 14 8 4 0 -17 -17 -60 -18 -46 -1 5 -9 2 -18 -6 -28 -23 -43
-30 -43 -19 0 6 7 11 17 11 9 0 13 3 10 6 -3 4 -1 16 5 28 11 20 10 20 -9 3
-11 -9 -33 -41 -48 -70 -28 -49 -29 -59 -33 -214 -5 -169 2 -248 19 -222 8 12
11 12 20 -1 9 -12 10 -11 6 8 -7 30 31 39 84 22 56 -19 55 -26 -4 -21 -40 2
-53 -1 -64 -15 -9 -13 -10 -21 -1 -31 9 -11 16 -9 40 13 21 21 28 24 28 12 0
-9 7 -19 16 -22 22 -9 24 -8 18 8 -8 21 47 7 69 -18 14 -16 17 -17 13 -4 -3
12 -1 15 10 11 7 -3 14 -9 14 -14 0 -5 7 -9 15 -9 8 0 15 4 15 8 0 18 -65 92
-89 101 -75 27 -134 41 -156 35 -23 -6 -25 -4 -25 33 0 21 4 43 9 49 8 8 25
154 24 216 0 15 3 25 7 23 10 -6 43 32 37 42 -3 5 -1 15 5 23 8 12 8 11 3 -5
-5 -16 -4 -17 6 -8 8 8 18 9 31 2 10 -5 24 -7 30 -3 7 4 8 3 4 -4 -10 -17 39
-15 56 2 10 9 20 11 31 4 11 -6 17 -5 17 1 0 6 7 8 15 4 9 -3 24 2 35 12 19
17 19 17 15 -4 -5 -28 35 -47 49 -24 5 9 11 11 15 5 3 -5 29 -12 56 -16 28 -3
65 -8 82 -12 43 -8 86 3 76 19 -4 8 -1 7 10 -2 9 -7 17 -10 17 -6 0 3 10 -6
23 -22 30 -36 60 -101 54 -117 -3 -6 2 -21 10 -31 13 -17 15 -17 10 -2 -4 9
-3 17 2 17 4 0 7 -22 7 -48 0 -41 -3 -48 -17 -45 -13 4 -17 -2 -17 -24 0 -40
19 -113 29 -113 5 0 9 -7 9 -15 0 -23 19 -18 24 8 3 12 13 78 22 147 9 69 20
131 24 139 15 29 -10 102 -55 160 -59 78 -96 108 -180 146 -81 37 -136 45
-220 34z m325 -194 c0 -2 -10 -9 -22 -15 -22 -11 -22 -10 -4 4 21 17 26 19 26
11z"/>
<path d="M1118 1108 c-37 -8 -48 -15 -48 -29 0 -13 5 -17 18 -12 15 6 15 5 3
-10 -7 -9 -10 -17 -5 -17 5 0 2 -5 -6 -10 -9 -6 -10 -10 -3 -10 6 0 15 5 18
10 3 6 15 10 26 10 10 0 19 -4 19 -10 0 -5 8 -10 18 -10 14 0 15 2 2 10 -9 6
-10 10 -3 10 6 0 15 -5 19 -11 4 -8 9 -7 15 2 6 11 14 8 33 -10 14 -14 29 -21
33 -17 13 12 -25 39 -74 51 l-48 13 41 11 c23 6 61 12 85 14 24 1 43 7 41 12
-2 6 -13 9 -25 7 -43 -5 -52 -5 -82 0 -16 3 -51 1 -77 -4z"/>
<path d="M850 765 c0 -9 24 -50 34 -56 4 -4 17 -4 28 -1 18 4 17 7 -8 33 -24
26 -54 39 -54 24z"/>
<path d="M661 694 c0 -11 3 -14 6 -6 3 7 2 16 -1 19 -3 4 -6 -2 -5 -13z"/>
<path d="M670 654 c0 -3 4 -14 10 -24 9 -16 5 -19 -32 -25 -23 -4 -52 -18 -65
-31 -35 -35 -63 -51 -104 -58 -20 -4 -44 -15 -53 -24 -10 -12 -26 -17 -44 -14
-21 3 -35 -4 -57 -26 -17 -16 -43 -32 -60 -35 -94 -18 -120 -27 -135 -48 -10
-12 -42 -37 -71 -54 l-54 -31 -3 -142 -3 -142 1001 0 1001 0 -3 117 -3 117
-43 33 c-26 20 -77 43 -132 59 -78 24 -90 30 -90 49 0 27 -22 47 -43 39 -9 -3
-24 3 -36 15 -21 21 -80 41 -123 41 -16 0 -28 4 -28 9 0 5 -43 31 -95 56 -52
26 -98 52 -101 57 -9 14 -21 -7 -38 -67 -20 -66 -77 -132 -140 -161 -52 -24
-107 -34 -76 -14 10 7 -10 10 -66 10 -75 0 -84 2 -119 30 -33 26 -84 100 -69
100 3 0 -2 7 -10 16 -9 8 -14 19 -12 23 3 4 -15 29 -40 56 -24 27 -44 55 -44
62 0 7 -4 13 -10 13 -5 0 -10 -3 -10 -6z m63 -204 c16 -17 22 -27 13 -24 -12
5 -52 54 -44 54 2 0 16 -14 31 -30z"/>
<path d="M825 610 c11 -5 40 -8 65 -8 41 0 42 1 15 8 -16 4 -46 8 -65 8 -28 1
-31 -1 -15 -8z"/>
<path d="M1180 462 c0 -7 -7 -12 -15 -12 -8 0 -15 -4 -15 -9 0 -5 -8 -11 -17
-13 -12 -2 -14 -6 -6 -11 14 -9 72 38 61 49 -5 4 -8 2 -8 -4z"/>
<path d="M1050 376 c0 -2 7 -7 16 -10 8 -3 12 -2 9 4 -6 10 -25 14 -25 6z"/>
</g>
</svg>
