<?xml version="1.0" standalone="no"?>
<!DOCTYPE svg PUBLIC "-//W3C//DTD SVG 20010904//EN"
 "http://www.w3.org/TR/2001/REC-SVG-20010904/DTD/svg10.dtd">
<svg version="1.0" xmlns="http://www.w3.org/2000/svg"
 width="200.000000pt" height="200.000000pt" viewBox="0 0 200.000000 200.000000"
 preserveAspectRatio="xMidYMid meet">
<metadata>
Created by potrace 1.14, written by Peter Selinger 2001-2017
</metadata>
<g transform="translate(0.000000,200.000000) scale(0.100000,-0.100000)"
fill="#000000" stroke="none">
<path d="M1008 1809 c-2 -5 -30 -14 -63 -18 -33 -5 -82 -19 -108 -30 -27 -12
-58 -21 -70 -21 -21 0 -57 -30 -118 -97 -25 -27 -43 -64 -44 -89 0 -6 -8 -19
-18 -29 -15 -14 -16 -20 -5 -27 10 -7 9 -11 -5 -19 -10 -6 -16 -18 -13 -27 3
-9 8 -83 11 -163 7 -132 6 -147 -10 -153 -15 -5 -16 -17 -9 -114 5 -59 7 -131
6 -160 -2 -40 1 -54 13 -58 9 -4 15 -18 15 -36 0 -18 -4 -27 -11 -23 -6 4 -8
13 -5 20 3 8 2 15 -2 17 -4 2 -25 24 -47 50 -21 26 -42 45 -47 42 -5 -3 -8 -2
-7 3 4 17 -21 62 -41 73 -16 9 -20 20 -19 63 0 29 3 46 6 40 11 -29 23 -10 18
30 -3 27 -2 35 3 23 6 -14 11 -16 16 -8 4 7 4 17 0 24 -5 7 -3 8 5 3 9 -5 12
0 10 16 -2 13 1 30 5 38 6 9 5 12 -1 8 -6 -4 -15 17 -22 48 -8 37 -17 55 -27
55 -11 0 -13 6 -9 20 4 11 2 20 -4 20 -6 0 -11 6 -11 14 0 18 -35 27 -51 12
-9 -8 -10 -8 -5 2 4 7 -6 25 -25 45 -19 18 -32 40 -30 51 1 10 -7 27 -18 37
-12 11 -21 25 -22 32 0 7 -4 3 -9 -8 -7 -19 -8 -18 -15 7 -4 17 -12 25 -21 21
-8 -3 -14 1 -15 8 0 8 -4 5 -9 -6 -8 -18 -9 -17 -9 7 -1 19 -5 26 -15 22 -7
-3 -20 1 -27 8 -21 21 -49 30 -43 14 3 -8 0 -17 -6 -21 -7 -4 -9 4 -5 25 5 28
3 31 -15 25 -13 -4 -20 -2 -20 7 0 7 -9 19 -20 26 -12 7 -20 8 -20 2 0 -5 5
-10 12 -10 9 0 9 -3 0 -12 -9 -9 -12 -206 -12 -825 l0 -813 1000 0 1000 0 0
550 c0 303 -3 550 -6 550 -12 0 -50 -24 -60 -39 -7 -8 -10 -29 -8 -46 2 -16 6
-51 10 -78 4 -30 2 -53 -6 -62 -8 -10 -8 -19 -1 -34 15 -27 15 -26 -19 -61
-21 -22 -30 -40 -30 -64 0 -19 -7 -39 -15 -46 -10 -8 -15 -30 -15 -62 0 -40
-4 -51 -18 -55 -16 -4 -18 -12 -14 -52 3 -34 0 -52 -11 -62 -8 -9 -14 -28 -14
-45 1 -73 1 -73 -40 -62 -22 6 -53 26 -73 48 -31 33 -43 39 -95 45 -41 5 -73
16 -100 35 -22 15 -62 37 -88 48 l-49 22 -19 -23 c-20 -24 -23 -18 -19 35 1
19 -3 28 -13 28 -18 0 -32 30 -14 30 7 0 4 5 -5 11 -10 5 -30 8 -45 6 -31 -5
-92 21 -75 32 15 9 17 28 8 126 -11 118 -14 154 -20 254 -5 91 -16 116 -38 82
-16 -26 -31 -28 -23 -2 4 14 -4 29 -30 52 l-35 32 20 22 c11 12 20 27 20 33 0
7 7 15 15 18 13 5 13 9 3 21 -10 13 -8 15 12 13 44 -4 52 -1 46 18 -3 9 -1 24
4 31 5 9 5 22 -2 34 -14 26 -19 87 -7 87 5 0 9 6 9 13 1 6 9 22 19 34 16 19
23 21 50 13 17 -5 32 -9 34 -9 1 0 25 -3 53 -6 46 -7 52 -10 73 -49 12 -22 31
-72 41 -111 16 -62 19 -67 25 -42 4 15 5 44 2 62 -4 24 -1 40 9 50 9 8 12 15
7 15 -5 0 -8 28 -6 63 3 79 -19 155 -55 189 -101 100 -89 94 -224 102 -67 4
-130 12 -139 17 -11 6 -19 5 -21 -2z m-558 -649 c0 -5 -2 -10 -4 -10 -3 0 -8
5 -11 10 -3 6 -1 10 4 10 6 0 11 -4 11 -10z m488 -142 c2 -8 -6 -18 -16 -20
-15 -4 -18 -1 -14 19 5 26 25 26 30 1z m302 -445 c2 -2 -2 -8 -10 -13 -13 -8
-13 -10 1 -10 9 0 24 -9 35 -21 23 -26 30 -69 10 -69 -13 0 -32 -44 -27 -64 1
-4 -3 -14 -10 -22 -6 -7 -8 -18 -4 -24 3 -6 -8 -26 -27 -45 -33 -36 -48 -43
-48 -24 0 5 6 7 13 3 6 -4 3 2 -7 14 -15 17 -16 22 -5 23 10 0 11 2 2 6 -7 2
-13 16 -13 29 0 13 -4 24 -10 24 -18 0 -10 22 10 27 21 6 29 53 9 53 -14 0 -2
52 14 62 8 5 6 12 -5 25 -12 13 -14 23 -7 35 8 14 14 15 42 6 17 -6 34 -13 37
-15z"/>
<path d="M1226 1243 c-6 -14 -5 -15 5 -6 7 7 10 15 7 18 -3 3 -9 -2 -12 -12z"/>
<path d="M1147 1231 c-4 -17 -3 -21 5 -13 5 5 8 16 6 23 -3 8 -7 3 -11 -10z"/>
<path d="M1120 1211 c0 -6 4 -13 10 -16 6 -3 7 1 4 9 -7 18 -14 21 -14 7z"/>
<path d="M1185 1180 c3 -25 10 -49 16 -54 14 -15 10 23 -7 64 l-14 35 5 -45z"/>
<path d="M1095 1179 c-4 -6 -5 -12 -2 -15 2 -3 7 2 10 11 7 17 1 20 -8 4z"/>
<path d="M1325 1113 c-70 -5 -85 -12 -85 -36 0 -13 -5 -28 -11 -34 -16 -16 -2
-81 19 -91 23 -12 67 0 68 18 0 8 4 24 8 35 4 11 9 25 11 32 4 13 45 6 45 -8
0 -5 8 -9 18 -9 14 1 13 4 -7 20 -13 11 -31 20 -40 20 -9 0 2 12 24 25 22 14
36 25 30 26 -5 0 -17 1 -25 2 -8 1 -33 1 -55 0z"/>
<path d="M1240 771 c0 -6 5 -13 11 -16 6 -4 8 -13 5 -20 -3 -8 2 -19 10 -25
17 -15 18 -7 2 37 -11 31 -28 45 -28 24z"/>
</g>
</svg>
