<?xml version="1.0" standalone="no"?>
<!DOCTYPE svg PUBLIC "-//W3C//DTD SVG 20010904//EN"
 "http://www.w3.org/TR/2001/REC-SVG-20010904/DTD/svg10.dtd">
<svg version="1.0" xmlns="http://www.w3.org/2000/svg"
 width="200.000000pt" height="200.000000pt" viewBox="0 0 200.000000 200.000000"
 preserveAspectRatio="xMidYMid meet">
<metadata>
Created by potrace 1.14, written by Peter Selinger 2001-2017
</metadata>
<g transform="translate(0.000000,200.000000) scale(0.100000,-0.100000)"
fill="#000000" stroke="none">
<path d="M0 1000 l0 -1000 140 0 c105 0 140 3 140 13 0 27 -22 87 -31 87 -6 0
-7 5 -4 10 3 6 3 10 -2 10 -29 0 -52 181 -34 272 6 29 13 69 16 88 4 19 10 39
16 45 5 5 9 35 9 67 0 64 18 95 59 101 12 2 26 8 29 13 16 22 33 10 67 -46 39
-64 112 -226 140 -310 17 -52 17 -54 -1 -68 -39 -29 -85 -42 -153 -42 -38 0
-72 -4 -76 -9 -3 -6 10 -17 29 -26 19 -9 41 -27 50 -39 15 -24 78 -88 119
-121 13 -11 22 -26 20 -32 -4 -10 146 -13 731 -13 l736 0 0 1000 0 1000 -1000
0 -1000 0 0 -1000z m1390 880 c72 -14 164 -56 230 -105 30 -23 77 -58 104 -78
27 -20 53 -37 58 -37 30 0 -25 -116 -85 -179 -31 -32 -58 -74 -73 -113 -13
-34 -28 -64 -33 -67 -5 -4 -20 -26 -33 -51 -13 -25 -29 -45 -36 -45 -7 0 -16
-5 -20 -11 -25 -39 -122 -47 -146 -12 -9 12 -16 29 -16 38 0 13 2 13 11 0 8
-11 9 -7 5 18 -3 17 -2 42 3 55 4 12 11 35 15 51 6 25 5 28 -8 17 -12 -10 -16
-9 -24 5 -6 10 -16 15 -26 11 -9 -4 -16 -2 -16 4 0 6 -21 -12 -46 -40 -50 -55
-67 -60 -117 -34 -18 9 -35 16 -39 15 -4 -1 -5 5 -2 13 4 9 0 15 -10 15 -12 0
-14 7 -11 33 4 24 3 27 -4 12 -8 -19 -9 -18 -22 10 -17 37 -83 103 -74 74 9
-28 -5 -23 -45 14 -20 17 -55 48 -79 67 -24 19 -49 40 -56 47 -7 7 -15 9 -19
6 -3 -4 -6 0 -6 8 0 27 -18 41 -84 65 l-67 24 -81 -21 c-50 -13 -92 -18 -112
-14 -17 3 -46 7 -63 8 -39 2 -40 4 -11 34 16 18 32 23 68 23 26 0 71 4 101 10
30 5 95 16 144 25 50 9 169 34 265 57 96 23 191 44 210 48 53 11 191 11 250 0z
m-266 -804 c-20 -118 -38 -176 -56 -176 -13 0 -33 -21 -41 -44 -5 -13 -1 -25
13 -38 13 -13 20 -15 20 -6 1 7 7 -2 15 -21 18 -39 9 -56 -33 -64 -15 -3 -34
-18 -44 -34 -9 -16 -28 -35 -43 -43 -18 -10 -22 -16 -13 -22 14 -8 1 -10 -123
-12 -70 -2 -75 -1 -57 13 26 21 56 136 44 167 -6 15 -8 15 -24 1 -9 -8 -39
-18 -67 -22 -27 -4 -67 -16 -89 -27 -21 -11 -42 -16 -47 -11 -12 12 12 273 25
273 6 0 34 -7 61 -16 135 -42 183 -37 265 23 148 109 174 124 187 107 7 -9 10
-31 7 -48z m-289 -536 c-3 -5 -12 -10 -18 -10 -7 0 -6 4 3 10 19 12 23 12 15
0z"/>
</g>
</svg>
